<svg xmlns="http://www.w3.org/2000/svg" viewBox="0 0 2000 2000" xmlns:v="https://vecta.io/nano"><path d="M652.6 1168.5c1.6-.7 1.2-1.3 0 0h0zm40.4 61.1c.1-.1 0 0-.2.1.1-.1.2-.1.2-.1zm616.9-1071.4C956.6 27.1 546.7 138.3 307.4 428.9 68.5 719.1 36 1140 230.5 1462.4c193.7 320.9 576.3 489.7 943.9 417.2 363.4-71.6 654.2-373.4 710.7-739.7 7.2-46.4 10.8-93.2 11-140.1-1.8-372.2-236.4-711.8-586.2-841.6zM1293 1812.8c-340.3 122.5-728.6 15.7-959.6-262C101.5 1272 71.7 864 258.9 553.8 445.5 244.6 815.8 81 1170.1 152.5c348.4 70.4 624.1 356.4 682 707.1 7.7 46.4 11 93.3 11.2 140.2-1.8 360-230.2 690.7-570.3 813zm-260.2-905c-1-.4-2-.7-3-1V771.5v-5.8c11-2.4 21.2-7.9 28.9-16.5 9.3-10.4 17-27.1 13.8-41.3-1.9-8.4-5.4-16.7-8-24.9l-35.1-109-9.7-30.1c-5-15.6-26.6-15.6-31.7 0l-30.1 93.5-18.2 56.5c-1.4 4.4-3.2 8.8-4.3 13.3-2.9 11.7 1.9 26 8.5 35.7 8.2 12 20.2 19.7 33.9 22.8v131.9 6.8c-20.8 4.7-40.1 15.9-53.8 32.6-20.3 24.7-27.5 57.8-19.7 88.1L716.9 1141l-15.5 9.6c-8-8.2-18-14-29.6-15.9-13.4-2.3-31.4-.3-41.7 9.7-6.6 6.4-12.3 14.4-18.2 21.4l-73.3 86-20.2 23.7c-10.4 12.2-.7 31.6 16 27.4l94.1-23.3 57.8-14.3c4.7-1.2 9.5-2.1 14.1-3.5 11.1-3.3 20.6-13.8 25.6-24 6.8-13.8 7.5-29.1 2.7-43.1L914.2 1080l16.2-10c22.8 22.1 55.4 32 87.5 26.3 45.2-8.1 77.5-49.2 79-94.2.1-.6.1-1.3.1-1.9-.4-41.5-25.7-77.8-64.2-92.4zm-61-182.7c-1.6-2.2-2-4.4-3.3-6.7 0 0-.6-3.4-1-3.6l.6-1.5c1.6-5.3 3.4-10.5 5-15.7l30.9-96 34.7 107.8c.6 1.7 1.3 3.5 1.7 5.2.5 2.4-.3 1.5-.1.2-1.7 11.3-10.8 19-22 19.3-1.1 0-2.3 0-3.5.1-.4 0-.9-.1-1.3-.1h-19c-1.2 0-2.3.1-3.3.3-7.8-.6-14.9-3.1-19.4-9.3zm-319.2 443.4c1.2-1.3 1.6-.7 0 0h0zm40.4 61.1c-.1 0-.1.1-.2.1.2-.1.3-.2.2-.1zm4.3-7.6c-1.4 3.1-3.4 4.6-5.4 7.2-.7.9 0 .8.6.5-.9.3-2 .4-2.9.7l-15.8 3.9-98.1 24.3 73.1-85.7 3.5-4.2.2-.2c10.2-4.8 22.1-1.5 28.3 7.9.6 1 1.2 1.9 1.9 2.9.2.4.4.7.6 1.1l10 16.2c.6 1 1.3 2 2.1 2.8 3.7 7.4 5.4 15.1 1.9 22.6zm324.7-161.1c-26.2 9.4-55.8 1.7-73.4-19.9-.2-.3-.3-.7-.5-1l-8.5-13.7c-8.4-19.1-7.3-41.8 3.7-60.1 11.1-18.7 31.4-30.6 52.8-31.7h6.5c2.6.1 5.3.4 7.9.9 31.2 5.7 53.5 32.8 53.9 64.3-.4 26.9-16.8 52-42.4 61.2zm612.4-428.4c-1.3-2.1-3-3.8-4.9-5.1-59.9-101.4-143.5-188.3-244.8-251.5-1-1-2.1-1.9-3.3-2.5-.8-.4-1.6-.8-2.4-1-39.6-24.2-81.8-44.8-126.4-61.3-80.5-29.8-164.7-44.2-248.4-44.3-1.6-.5-3.2-.8-4.9-.7-1.5.1-2.9.3-4.2.7-131 1.5-260.5 37.8-373.1 104.7-1.7.4-3.3 1-4.8 1.9-1.4.9-2.6 1.9-3.7 3.1-68.2 41.8-130 94.8-181.8 158.3-24.4 29.9-46.2 61.5-65.3 94.4-.9 1-1.8 2-2.4 3.2-.6 1-1 2.1-1.3 3.3-62 109.6-94.4 233.2-95.9 357.4-1 2.1-1.5 4.4-1.4 6.7.1 2.2.6 4.2 1.4 6.1.7 128.8 34.6 257.7 103.2 371.6 60.9 101.2 144.8 183.9 242 244 1.3 1.9 3 3.6 5.2 4.7 1.8 1 3.8 1.6 5.7 1.9 111.7 66.4 240.3 103.4 371.9 104.9 1.4.4 2.9.6 4.5.6 1.2-.1 2.4-.2 3.5-.5 46.5 0 93.4-4.4 140-13.6 83.9-16.5 163-48 234.4-91.4 1.5-.4 2.9-.9 4.2-1.8 1.3-.8 2.4-1.8 3.5-2.9 100.8-63 185.8-150 246.4-252.1 1.3-1.1 2.4-2.4 3.2-4 .7-1.3 1.2-2.7 1.5-4.1 44.2-76.5 74.8-161.2 88.3-250.5 5.7-37.4 8.5-75 8.7-112.8-.8-128.5-35.3-252.1-96.4-360 0-2.7-.8-5.2-2.2-7.4zm-256 956.9l-32.2-52.8-5.9-9.7c-4.5-7.3-14.9-10.8-22.4-5.9-7.3 4.7-10.7 14.6-5.9 22.4l38.5 63.1c-34.9 20.4-71.9 37.8-110.7 51.9-73 26.5-148.7 40-224.1 41.4v-61.6-11.2c0-8.6-7.5-16.8-16.4-16.4s-16.4 7.2-16.4 16.4v72.5c-117.2-3.3-232.5-35.8-334.3-94.1l32-52.4 5.9-9.7c4.5-7.3 1.8-18.4-5.9-22.4-8-4.2-17.7-1.9-22.5 5.9l-37.7 61.7a695.37 695.37 0 0 1-160.2-140.4 670.55 670.55 0 0 1-59.6-83.4l53.9-31.2 9.8-5.6c7.4-4.3 10.7-15 5.9-22.4-4.8-7.5-14.5-10.5-22.5-5.9l-63.5 36.7c-53.5-98.7-82-209.1-84.7-320.2h61 11.1c8.6 0 16.8-7.5 16.4-16.4s-7.2-16.4-16.4-16.4h-72.3c2.4-110.6 30.4-220.9 84.6-320.2l53.8 31.1 9.8 5.6c7.4 4.3 18.3 2 22.5-5.9 4.1-7.8 2-17.9-5.9-22.5l-63.7-36.8c56-91.7 132-167.4 219.9-223.6l31.6 51.8 5.9 9.6c4.5 7.3 14.9 10.8 22.5 5.9 7.3-4.7 10.7-14.6 5.9-22.5l-37.8-61.9c101.2-58.3 216.3-91.6 334.1-94.9v62.1 11.1c0 8.6 7.5 16.8 16.4 16.4s16.4-7.2 16.4-16.4v-73.4c40.9.8 81.9 5.2 122.7 13.5a689.61 689.61 0 0 1 211.7 81.1l-32.2 52.7-5.9 9.6c-4.5 7.3-1.8 18.4 5.9 22.5 8 4.2 17.7 1.9 22.4-5.9l37.6-61.6c88.6 57.8 163.1 135.1 218 224.8l-52.1 30.1-9.8 5.6c-7.4 4.3-10.7 15-5.9 22.5s14.5 10.5 22.4 5.9l61.8-35.7c52.9 96.2 84.1 205.2 87.5 319.2h-62.2-11.2c-8.6 0-16.8 7.5-16.4 16.4s7.2 16.4 16.4 16.4h73.3c-3.4 113.3-34.2 222.7-87.1 319.4l-52.4-30.3-9.8-5.6c-7.4-4.3-18.3-2-22.4 5.9-4.1 7.8-2.1 17.9 5.9 22.4l62.3 36c-54.1 90.2-128.3 167.8-217.4 225.7z"/></svg>